{"accessors":[{"bufferView":2,"componentType":5126,"count":24502,"max":[5.6376190185546875,5.300251007080078,2.307742118835449],"min":[-5.449777126312256,-5.692145824432373,-2.293581962585449],"type":"VEC3"},{"bufferView":2,"byteOffset":294024,"componentType":5126,"count":24502,"max":[0.999984860420227,0.9994338750839233,0.9999909400939941],"min":[-0.9994063377380371,-0.9997573494911194,-0.992849588394165],"type":"VEC3"},{"bufferView":1,"componentType":5126,"count":24502,"max":[0.9997929930686951,1],"min":[0,0],"type":"VEC2"},{"bufferView":0,"componentType":5125,"count":126633,"type":"SCALAR"}],"asset":{"extras":{"author":"Lycortas (https://sketchfab.com/Lycortas)","license":"CC-BY-4.0 (http://creativecommons.org/licenses/by/4.0/)","source":"https://sketchfab.com/3d-models/schnauzer-dog-sleeping-280b04d4edd64103b797bc6312385f30","title":"Schnauzer dog sleeping"},"generator":"Sketchfab-13.63.0","version":"2.0"},"bufferViews":[{"buffer":0,"byteLength":506532,"name":"floatBufferViews","target":34963},{"buffer":0,"byteLength":196016,"byteOffset":506532,"byteStride":8,"name":"floatBufferViews","target":34962},{"buffer":0,"byteLength":588048,"byteOffset":702548,"byteStride":12,"name":"floatBufferViews","target":34962}],"buffers":[{"byteLength":1290596,"uri":"data:application/octet-stream;base64,"}],"extensionsUsed":["KHR_materials_unlit"],"images":[{"uri":"data:application/octet-stream;base64,"}],"materials":[{"doubleSided":true,"extensions":{"KHR_materials_unlit":{}},"name":"mesh","pbrMetallicRoughness":{"baseColorTexture":{"index":0},"metallicFactor":0}}],"meshes":[{"name":"Object_0","primitives":[{"attributes":{"NORMAL":1,"POSITION":0,"TEXCOORD_0":2},"indices":3,"material":0,"mode":4}]}],"nodes":[{"children":[1],"matrix":[1,0,0,0,0,2.220446049250313e-16,-1,0,0,1,2.220446049250313e-16,0,0,0,0,1],"name":"Sketchfab_model"},{"children":[2],"name":"untitled.obj.cleaner.materialmerger.gles"},{"mesh":0,"name":"Object_2"}],"samplers":[{"magFilter":9729,"minFilter":9987,"wrapS":10497,"wrapT":10497}],"scene":0,"scenes":[{"name":"Sketchfab_Scene","nodes":[0]}],"textures":[{"sampler":0,"source":0}]}